<?xml version="1.0" standalone="no"?>
<!DOCTYPE svg PUBLIC "-//W3C//DTD SVG 20010904//EN"
 "http://www.w3.org/TR/2001/REC-SVG-20010904/DTD/svg10.dtd">
<svg version="1.0" xmlns="http://www.w3.org/2000/svg"
 width="512.000000pt" height="512.000000pt" viewBox="0 0 512.000000 512.000000"
 preserveAspectRatio="xMidYMid meet">
<metadata>
Created by potrace 1.14, written by Peter Selinger 2001-2017
</metadata>
<g transform="translate(0.000000,512.000000) scale(0.100000,-0.100000)"
fill="#000000" stroke="none">
<path d="M1785 4710 l-230 -5 -58 -29 c-32 -17 -74 -47 -93 -68 -19 -21 -39
-36 -43 -33 -5 3 -7 -4 -4 -15 3 -12 0 -20 -6 -20 -7 0 -9 -4 -6 -10 3 -5 1
-18 -4 -29 -6 -11 -12 -41 -12 -68 -1 -26 -7 -51 -13 -55 -8 -5 -7 -8 1 -8 16
0 8 -38 -14 -64 -17 -20 -17 -20 1 -6 19 15 19 14 1 -20 -10 -19 -23 -38 -29
-42 -6 -4 -8 -8 -3 -8 13 0 -46 -60 -80 -81 -18 -11 -38 -17 -44 -13 -7 4 -9
3 -5 -4 6 -10 -20 -23 -59 -28 -11 -1 -20 -3 -20 -4 0 -8 -92 -3 -97 5 -6 7
-10 7 -15 -1 -10 -13 -65 -13 -75 1 -5 7 -8 6 -8 -1 0 -13 -70 -13 -70 1 0 6
-3 6 -8 -1 -9 -13 -64 -13 -74 1 -5 7 -8 6 -8 0 0 -14 -92 -13 -102 0 -5 7
-11 7 -15 0 -10 -12 -103 -15 -103 -2 0 4 -5 5 -11 1 -6 -4 -44 -9 -83 -11
-109 -7 -114 -7 -109 -15 2 -5 0 -8 -5 -8 -5 0 -25 -11 -45 -24 -19 -13 -39
-21 -43 -18 -4 4 -4 1 0 -5 4 -7 3 -13 -3 -13 -9 0 -75 -94 -77 -111 -1 -5 -3
-12 -4 -16 -1 -5 -2 -11 -1 -15 0 -5 -5 -8 -11 -8 -9 0 -8 -4 2 -10 8 -5 11
-10 5 -10 -6 0 -10 -59 -9 -160 1 -147 0 -159 -15 -148 -14 12 -15 11 -1 -6
19 -25 26 -71 8 -60 -10 6 -11 5 -1 -7 8 -10 12 -49 10 -116 -2 -84 -4 -100
-17 -96 -11 3 -11 2 1 -6 14 -9 17 -28 16 -106 0 -85 -2 -93 -16 -82 -14 11
-14 10 -1 -7 19 -25 26 -71 8 -60 -10 6 -11 5 -1 -7 8 -10 12 -49 10 -116 -2
-84 -4 -100 -17 -96 -11 3 -11 2 1 -6 14 -9 17 -28 16 -106 0 -85 -2 -93 -16
-82 -14 11 -14 10 -1 -7 19 -25 26 -71 8 -60 -10 6 -11 5 -1 -7 8 -10 12 -49
10 -116 -2 -84 -4 -100 -17 -96 -11 3 -11 2 1 -6 14 -9 17 -28 16 -106 0 -85
-2 -93 -16 -82 -14 11 -14 10 -1 -7 19 -25 26 -71 8 -60 -10 6 -11 5 -1 -7 8
-10 12 -49 10 -116 -2 -84 -4 -100 -17 -96 -11 3 -11 2 1 -6 14 -9 17 -28 16
-106 0 -85 -2 -93 -16 -82 -14 11 -14 10 -1 -7 19 -25 26 -71 8 -60 -10 6 -11
5 -1 -7 8 -10 12 -49 10 -116 -2 -84 -4 -100 -17 -96 -11 3 -11 2 1 -6 14 -9
17 -28 16 -106 0 -85 -2 -93 -16 -82 -14 11 -14 10 -1 -7 19 -25 26 -71 8 -60
-10 6 -11 5 -1 -7 8 -10 12 -49 10 -116 -2 -84 -4 -100 -17 -96 -11 3 -11 2 1
-6 20 -13 24 -117 5 -140 -9 -12 -8 -13 2 -7 11 6 12 1 9 -23 -3 -17 -1 -31 4
-31 4 0 6 -7 3 -15 -4 -8 -1 -15 6 -15 9 0 9 -4 -1 -17 -8 -9 -9 -14 -2 -10 7
4 14 0 17 -10 3 -10 17 -30 31 -45 23 -25 24 -32 3 -29 -8 1 -4 -26 6 -36 4
-4 6 -2 4 6 -2 7 3 16 11 19 8 3 11 0 7 -7 -4 -7 0 -11 11 -11 10 0 31 -11 47
-25 16 -13 33 -22 38 -19 5 3 8 -2 6 -11 -2 -12 5 -19 22 -21 18 -3 21 -2 10
5 -8 5 -18 7 -24 4 -5 -3 -6 -1 -2 5 5 8 13 9 25 2 10 -5 21 -6 25 -3 3 3 6 2
6 -3 0 -6 -6 -16 -12 -23 -11 -10 -10 -12 2 -9 8 2 14 -3 13 -9 -2 -7 2 -13 7
-13 6 0 8 14 5 32 -3 18 -2 28 2 22 14 -19 43 -25 43 -9 0 10 11 3 30 -17 17
-18 29 -26 28 -18 -2 8 2 14 9 15 6 0 14 3 18 6 3 4 -8 5 -25 4 -17 -1 -33 2
-37 8 -3 6 -1 7 5 3 7 -4 12 -1 12 6 0 10 2 10 9 0 12 -19 15 -19 36 -2 11 8
16 10 12 3 -11 -18 16 -22 31 -4 8 9 11 10 7 3 -7 -13 21 -12 44 2 10 7 12 6
6 -4 -6 -10 -4 -12 7 -7 9 3 21 0 27 -6 9 -9 11 -8 5 7 -6 16 -4 17 13 8 14
-8 23 -8 31 0 8 8 12 8 12 2 0 -6 7 -11 15 -11 8 0 15 5 15 11 0 6 4 5 9 -2 4
-8 12 -14 16 -14 4 0 12 6 16 14 5 7 9 8 9 2 0 -12 49 -12 68 0 7 4 12 3 12
-2 0 -5 7 -9 15 -9 8 0 15 5 15 11 0 6 4 5 9 -2 11 -17 21 -17 32 0 5 7 9 8 9
3 0 -6 9 -11 20 -12 12 -1 18 3 14 9 -4 6 1 6 14 -1 14 -8 23 -8 27 -1 5 8 12
7 22 -2 19 -15 23 -15 34 4 5 8 9 9 9 2 0 -12 58 -12 78 0 6 3 13 2 17 -4 3
-5 13 -10 21 -10 8 0 12 4 9 10 -4 7 3 7 19 0 19 -7 26 -6 26 3 0 8 4 7 10 -3
5 -8 10 -11 10 -6 0 4 10 2 23 -6 27 -18 112 -17 129 1 11 11 10 12 -2 5 -19
-10 -110 -14 -110 -4 0 4 7 11 16 14 8 3 12 2 9 -4 -8 -12 38 -8 47 5 5 6 8 5
8 -3 0 -9 5 -10 19 -2 13 7 22 7 26 0 3 -5 4 -10 0 -10 -3 0 -1 -9 5 -21 7
-11 14 -18 17 -15 3 3 0 12 -7 21 -9 11 -9 15 -1 15 7 0 9 5 5 11 -5 8 -1 8
14 0 14 -8 23 -8 27 -1 5 8 12 7 22 -2 19 -15 23 -15 34 4 5 7 9 8 9 2 0 -12
69 -12 88 0 7 4 12 3 12 -2 0 -5 7 -9 15 -9 8 0 15 5 15 11 0 6 4 5 9 -2 4 -8
12 -14 16 -14 4 0 12 6 16 14 5 7 9 8 9 2 0 -12 49 -12 68 0 7 4 12 3 12 -2 0
-5 7 -9 15 -9 8 0 15 5 15 11 0 6 4 5 9 -2 4 -8 12 -14 16 -14 4 0 12 6 16 14
6 8 9 9 9 1 0 -12 38 -11 58 1 6 3 13 2 17 -4 3 -5 13 -10 21 -10 8 0 12 4 9
10 -4 7 3 7 19 0 19 -7 26 -6 26 3 0 8 3 9 8 1 8 -12 121 -13 141 0 10 6 12 6
7 -3 -9 -14 25 -12 35 2 3 5 9 2 12 -6 4 -11 0 -15 -14 -12 -10 2 -19 -1 -19
-7 0 -5 7 -7 16 -4 12 5 15 2 10 -11 -5 -16 -4 -16 9 1 8 10 12 22 10 26 -3 5
2 10 10 14 8 3 17 1 20 -4 4 -6 13 -10 21 -10 8 0 12 4 9 10 -4 7 3 7 19 0 19
-7 26 -6 26 3 0 7 3 8 8 2 11 -16 33 -17 50 -3 10 8 13 9 9 1 -11 -18 16 -22
31 -4 8 9 11 10 7 3 -7 -13 21 -12 44 2 10 7 12 6 6 -4 -6 -10 -4 -12 7 -7 9
3 21 0 27 -6 9 -9 11 -8 5 7 -6 16 -4 17 13 8 14 -8 23 -8 31 0 8 8 12 8 12 2
0 -6 7 -11 15 -11 8 0 15 5 15 11 0 6 4 5 9 -2 11 -17 21 -17 32 0 5 7 9 8 9
2 0 -12 49 -12 68 0 7 4 12 3 12 -2 0 -5 7 -9 15 -9 8 0 15 5 15 11 0 6 4 5 9
-2 4 -8 12 -14 16 -14 4 0 12 6 16 14 5 7 9 8 9 3 0 -6 9 -11 20 -12 12 -1 18
3 14 9 -4 6 1 6 14 -1 14 -8 23 -8 27 -1 5 8 12 7 22 -2 19 -15 23 -15 34 4 5
8 9 9 9 2 0 -12 58 -12 78 0 6 3 13 2 17 -4 3 -5 13 -10 21 -10 8 0 12 4 9 10
-4 7 3 7 19 0 19 -7 26 -6 26 3 0 8 4 7 10 -3 5 -8 10 -11 10 -6 0 4 10 2 23
-6 27 -18 112 -17 129 1 11 11 10 12 -2 5 -19 -10 -110 -14 -110 -4 0 4 7 11
16 14 8 3 12 2 9 -4 -8 -12 38 -8 47 5 5 6 8 5 8 -3 0 -9 5 -10 19 -2 13 7 22
7 26 0 3 -5 4 -10 0 -10 -3 0 -1 -9 5 -21 7 -11 14 -18 17 -15 3 3 0 12 -7 21
-9 11 -9 15 -1 15 7 0 9 5 5 11 -5 8 -1 8 14 0 14 -8 23 -8 27 -1 5 8 12 7 22
-2 19 -15 23 -15 34 4 5 7 9 8 9 2 0 -12 69 -12 88 0 7 4 12 3 12 -2 0 -5 7
-9 15 -9 8 0 15 5 15 11 0 6 4 5 9 -2 11 -17 21 -17 32 0 5 7 9 8 9 2 0 -12
49 -12 68 0 7 4 12 3 12 -2 0 -5 7 -9 15 -9 8 0 15 5 15 11 0 6 4 5 9 -2 11
-17 21 -17 32 0 6 8 9 9 9 1 0 -12 38 -11 58 1 6 3 13 2 17 -4 3 -5 13 -10 21
-10 8 0 12 4 9 10 -4 7 3 7 19 0 19 -7 26 -6 26 3 0 8 3 9 8 1 8 -12 121 -13
141 0 10 6 12 6 7 -3 -9 -14 25 -12 35 2 3 5 9 2 12 -6 4 -11 0 -15 -14 -12
-10 2 -19 -1 -19 -7 0 -5 7 -7 16 -4 12 5 15 2 10 -11 -5 -16 -4 -16 9 1 8 10
12 22 10 26 -3 5 2 10 10 14 8 3 17 1 20 -4 4 -6 13 -10 21 -10 8 0 12 4 9 10
-4 7 3 7 19 0 19 -7 26 -6 26 3 0 7 3 8 8 2 11 -16 33 -17 50 -3 10 8 13 9 9
1 -11 -18 16 -22 31 -4 8 9 11 10 7 3 -7 -13 21 -12 44 2 10 7 12 6 6 -4 -6
-10 -4 -12 7 -7 9 3 21 0 27 -6 9 -9 11 -8 5 7 -6 16 -4 17 13 8 14 -8 23 -8
31 0 8 8 12 8 12 2 0 -6 7 -11 15 -11 8 0 15 5 15 11 0 6 4 5 9 -2 11 -17 21
-17 32 0 5 7 9 8 9 2 0 -12 49 -12 68 0 7 4 12 2 12 -4 0 -6 4 -9 9 -6 5 3 11
-3 14 -14 3 -11 11 -20 19 -19 10 0 10 2 1 6 -16 6 -17 30 -1 39 8 5 9 2 4
-11 -5 -14 -4 -16 7 -7 8 7 17 9 20 5 4 -3 7 -1 7 6 0 8 5 7 16 -4 9 -9 19
-13 22 -10 4 3 0 10 -7 14 -9 6 -5 11 16 16 15 5 34 7 42 6 7 -1 10 2 7 7 -3
6 2 8 14 5 11 -3 17 -10 13 -16 -4 -6 -1 -7 6 -3 7 5 10 11 7 14 -3 3 0 12 7
20 11 13 9 14 -13 2 -23 -12 -24 -12 -11 3 14 18 36 22 44 10 2 -5 2 -2 1 5
-5 17 7 43 16 37 4 -3 13 9 20 25 7 16 16 27 21 24 5 -3 6 2 3 10 -3 9 -1 16
5 16 6 0 10 3 9 8 -5 17 13 73 21 67 5 -3 13 0 17 6 4 7 3 9 -2 6 -6 -3 -16
-2 -24 4 -9 5 -10 9 -3 9 6 0 9 9 5 22 -4 16 -2 19 8 13 10 -6 11 -4 4 6 -5 8
-10 24 -12 36 -2 18 1 21 15 17 17 -5 17 -5 1 6 -18 11 -26 46 -9 35 5 -3 13
-1 16 5 4 6 1 9 -6 8 -6 -2 -13 10 -16 25 -3 21 0 27 8 21 8 -5 9 -3 3 7 -5 8
-10 24 -12 36 -2 18 1 21 15 17 17 -5 17 -5 1 6 -18 11 -26 46 -9 35 5 -3 13
-1 16 5 4 6 1 9 -6 8 -6 -2 -13 10 -16 25 -3 21 0 27 8 21 8 -5 9 -3 3 7 -5 8
-10 24 -12 36 -2 18 1 21 15 17 17 -5 17 -5 1 6 -18 11 -26 46 -9 35 5 -3 13
-1 16 5 4 6 1 9 -6 8 -6 -2 -13 10 -16 25 -3 21 0 27 8 21 8 -5 9 -3 3 7 -5 8
-10 24 -12 36 -2 18 1 21 15 17 17 -5 17 -5 1 6 -18 11 -26 46 -9 35 5 -3 13
-1 16 5 4 6 1 9 -6 8 -6 -2 -13 10 -16 25 -3 21 0 27 8 21 8 -5 9 -3 3 7 -5 8
-10 24 -12 36 -2 18 1 21 15 17 17 -5 17 -5 1 6 -18 11 -26 46 -9 35 5 -3 13
-1 16 5 4 6 1 9 -6 8 -6 -2 -13 10 -16 25 -3 21 0 27 8 21 8 -5 9 -3 3 7 -5 8
-10 24 -12 36 -2 18 1 21 15 17 17 -5 17 -5 1 6 -18 11 -26 46 -9 35 5 -3 13
-1 16 5 4 6 1 9 -6 8 -6 -2 -13 10 -16 25 -3 21 0 27 8 21 8 -5 9 -3 3 7 -5 8
-10 24 -12 36 -2 18 1 21 15 17 17 -5 17 -5 1 6 -18 11 -26 46 -9 35 5 -3 13
-1 16 5 4 6 1 9 -6 8 -6 -2 -13 10 -16 25 -3 21 0 27 8 21 8 -5 9 -3 3 7 -5 8
-10 24 -12 36 -2 18 1 21 15 17 17 -5 17 -5 1 6 -18 11 -26 46 -9 35 5 -3 13
-1 16 5 4 6 1 9 -6 8 -6 -2 -13 10 -16 25 -3 21 0 27 8 21 8 -5 9 -3 3 7 -5 8
-10 24 -12 36 -2 18 1 21 15 17 17 -5 17 -5 1 6 -18 11 -26 46 -9 35 5 -3 13
-1 16 5 4 6 1 9 -6 8 -6 -2 -13 10 -16 25 -3 21 0 27 8 21 8 -5 9 -3 3 7 -5 8
-10 24 -12 36 -2 18 1 21 15 17 17 -5 17 -5 1 6 -18 11 -26 46 -9 35 5 -3 13
-1 16 5 4 6 1 9 -6 8 -6 -2 -13 10 -16 25 -3 21 0 27 8 21 8 -5 9 -3 3 7 -5 8
-10 24 -12 36 -2 18 1 21 15 17 17 -5 17 -5 1 6 -18 11 -26 46 -9 35 5 -3 13
-1 16 5 4 6 1 9 -6 8 -6 -2 -13 10 -16 25 -3 21 0 27 8 21 8 -5 9 -3 3 7 -5 8
-10 24 -12 36 -2 18 1 21 15 17 17 -5 17 -5 1 6 -18 11 -26 46 -9 35 5 -3 13
-1 16 5 4 6 1 9 -6 8 -6 -2 -13 10 -16 25 -3 21 0 27 8 21 8 -5 9 -3 3 7 -5 8
-10 24 -12 36 -2 18 1 21 15 17 17 -5 17 -5 1 6 -18 11 -26 46 -9 35 5 -3 13
-1 16 5 4 6 1 9 -6 8 -6 -2 -13 10 -16 25 -3 21 0 27 8 21 8 -5 9 -3 3 7 -5 8
-10 24 -12 36 -2 18 1 21 15 17 17 -5 17 -5 1 6 -18 11 -26 46 -9 35 5 -3 13
-1 16 5 4 6 1 9 -6 8 -6 -2 -13 10 -16 25 -3 21 0 27 8 21 8 -5 9 -3 3 7 -5 8
-10 24 -12 36 -2 18 1 21 15 17 17 -5 17 -5 1 6 -18 11 -26 46 -9 35 5 -3 13
-1 16 5 4 6 1 9 -6 8 -6 -2 -13 10 -16 25 -3 21 0 27 8 21 8 -5 9 -3 3 7 -5 8
-10 24 -12 36 -2 18 1 21 15 17 17 -5 17 -5 1 6 -18 11 -26 46 -9 35 5 -3 13
-1 16 5 4 6 1 9 -6 8 -6 -2 -13 10 -16 25 -3 21 0 27 8 21 8 -5 9 -3 3 7 -5 8
-10 24 -12 36 -2 18 1 21 15 17 17 -5 17 -5 1 6 -18 11 -26 46 -9 35 5 -3 13
-1 16 5 4 6 1 9 -6 8 -6 -2 -13 10 -16 25 -3 21 0 27 8 21 8 -5 9 -3 3 7 -5 8
-10 24 -12 36 -2 18 1 21 15 17 17 -5 17 -5 1 6 -18 11 -26 46 -9 35 5 -3 13
-1 16 5 4 6 1 9 -6 8 -6 -2 -13 10 -16 25 -3 21 0 27 8 21 8 -5 9 -3 3 7 -5 8
-10 24 -12 36 -2 18 1 21 15 16 15 -5 15 -3 -2 10 -15 13 -16 16 -5 17 12 0
12 2 2 9 -14 8 -13 46 2 70 6 9 5 12 -1 8 -6 -4 -11 11 -12 38 -3 72 -5 85
-13 85 -4 0 -7 3 -6 8 3 13 -20 58 -36 71 -9 7 -16 20 -16 29 0 8 -3 12 -7 9
-3 -4 -15 4 -27 16 -12 12 -23 23 -26 23 -3 1 -24 11 -48 23 -30 15 -64 22
-115 24 -39 1 -75 7 -79 12 -5 7 -11 6 -15 -1 -10 -13 -65 -13 -75 1 -5 7 -8
6 -8 0 0 -14 -92 -13 -102 0 -5 7 -11 7 -15 0 -10 -12 -103 -15 -103 -2 0 4
-5 5 -12 1 -18 -12 -102 -11 -110 1 -5 6 -11 5 -18 -5 -7 -11 -12 -12 -21 -3
-8 8 -18 9 -30 2 -21 -11 -41 -9 -51 6 -5 6 -8 6 -8 -1 0 -15 -65 -1 -124 27
-45 21 -110 82 -99 93 4 3 1 6 -5 6 -6 0 -18 13 -27 30 -18 35 -19 43 -2 35 6
-4 4 0 -7 9 -10 8 -15 19 -11 25 3 6 2 11 -3 11 -12 0 -11 34 2 42 8 5 7 8 -1
8 -7 0 -13 12 -13 26 0 17 4 23 13 18 6 -4 5 1 -4 12 -8 10 -14 29 -13 42 0
12 -2 22 -6 22 -4 0 -11 11 -14 25 -9 34 -101 126 -151 149 -26 13 -69 21
-125 23 -133 6 -1449 9 -1705 3z m845 -632 c0 -7 4 -7 13 0 16 13 61 9 81 -7
14 -12 16 -11 10 5 -3 11 -2 15 3 8 4 -5 27 -10 50 -9 33 0 39 -2 31 -12 -7
-9 -7 -13 1 -13 7 0 10 -4 7 -8 -3 -5 1 -9 9 -9 10 0 12 4 5 12 -8 9 -6 14 5
19 9 3 13 2 10 -4 -3 -6 -4 -10 -1 -10 2 0 13 -3 23 -6 15 -5 16 -4 3 5 -12 9
-10 10 10 7 14 -2 24 -9 23 -15 -2 -6 2 -11 8 -11 5 0 8 -4 5 -8 -7 -11 31 -8
41 3 5 4 1 5 -7 0 -8 -5 -12 -4 -7 0 4 5 14 10 22 11 12 2 13 -2 3 -19 l-11
-22 23 20 c20 17 22 17 17 3 -8 -22 11 -34 26 -19 9 9 8 11 -3 8 -8 -2 -12 -2
-7 0 4 3 4 10 1 16 -4 7 1 4 11 -5 16 -15 16 -19 4 -34 -13 -16 -12 -16 8 -4
12 8 19 18 17 22 -3 4 0 8 5 8 6 0 11 -5 11 -11 0 -5 4 -7 10 -4 6 4 7 -1 3
-12 -6 -16 -5 -17 12 -3 16 14 17 13 11 -8 -5 -14 -3 -22 4 -22 6 0 9 4 5 9
-11 19 15 21 54 4 45 -19 52 -29 21 -29 -11 0 -20 4 -20 8 0 4 -10 13 -22 19
-13 6 -20 8 -16 4 4 -5 3 -13 -2 -20 -7 -8 -5 -12 5 -12 8 0 12 4 9 9 -3 4 -1
8 4 8 6 0 12 -6 15 -13 5 -14 33 -16 52 -5 6 3 43 -13 82 -35 61 -34 71 -43
60 -55 -10 -13 -9 -14 10 -4 25 14 36 3 27 -25 -6 -16 -5 -16 9 2 10 12 16 15
17 7 0 -7 5 -10 10 -7 6 3 10 1 10 -5 0 -7 -7 -10 -15 -6 -8 3 -15 1 -15 -4 0
-6 12 -10 26 -10 14 0 32 -6 40 -14 16 -17 19 -30 4 -21 -6 3 -7 -1 -4 -10 6
-14 8 -14 19 1 9 13 14 14 20 4 4 -7 2 -16 -6 -21 -9 -6 -10 -9 -2 -9 6 0 15
5 18 10 4 6 11 8 16 4 5 -3 7 -10 4 -15 -4 -5 1 -9 9 -9 8 0 20 -9 26 -20 6
-11 15 -18 20 -15 6 3 7 -1 4 -9 -3 -9 -14 -16 -23 -17 -10 0 -12 -2 -3 -6 7
-3 20 1 29 9 15 12 16 10 10 -17 -3 -16 -4 -24 -1 -17 10 22 30 13 71 -33 32
-34 38 -47 29 -54 -7 -6 -17 -7 -21 -3 -5 4 -5 1 -1 -6 6 -10 11 -10 22 -1 8
6 18 9 21 5 4 -4 1 -12 -7 -17 -11 -8 -9 -9 9 -4 18 6 22 4 15 -6 -12 -20 -14
-40 -3 -33 5 3 7 10 4 15 -10 14 3 11 25 -8 23 -20 26 -43 8 -63 -7 -8 -3 -6
9 3 13 11 23 14 27 8 4 -5 -2 -15 -11 -21 -16 -10 -15 -10 4 -5 18 5 25 1 35
-22 7 -15 17 -31 23 -35 6 -5 5 -8 -2 -8 -7 0 -13 -4 -13 -10 0 -5 7 -7 15 -4
11 5 13 2 8 -12 -4 -11 -3 -15 4 -11 6 4 13 0 17 -8 3 -8 -3 -19 -12 -25 -13
-8 -14 -10 -2 -9 29 3 41 -1 35 -11 -3 -5 -1 -10 5 -10 6 0 9 -4 6 -9 -3 -5 1
-14 9 -21 8 -7 15 -20 15 -29 0 -9 7 -27 16 -39 8 -12 12 -22 8 -22 -3 0 -2
-6 3 -12 6 -7 13 -22 16 -33 3 -11 10 -35 16 -53 7 -24 7 -31 -2 -26 -7 3 -4
-1 5 -9 16 -13 16 -15 0 -32 -16 -18 -16 -18 1 -6 15 12 17 11 19 -5 3 -37 5
-49 11 -64 13 -32 15 -80 4 -81 -7 0 -3 -4 8 -9 11 -5 14 -9 6 -9 -11 -1 -11
-4 -1 -16 6 -8 10 -20 7 -27 -2 -7 0 -24 5 -37 7 -20 6 -22 -9 -17 -15 6 -15
5 -2 -11 21 -24 19 -120 -1 -134 -13 -9 -13 -10 1 -6 13 4 15 -3 13 -42 -1
-25 -2 -59 -3 -74 -1 -20 -5 -26 -13 -21 -9 5 -9 2 1 -9 11 -14 11 -17 0 -18
-10 0 -11 -2 -1 -6 6 -2 9 -10 5 -16 -7 -12 -8 -18 -14 -74 -2 -18 -6 -33 -10
-33 -3 0 -6 -8 -6 -17 1 -32 -15 -93 -23 -88 -5 3 -6 -3 -3 -14 3 -10 0 -22
-6 -25 -5 -4 -8 -13 -4 -21 3 -10 -1 -15 -13 -16 -12 0 -14 -3 -6 -6 10 -4 10
-8 0 -21 -7 -8 -11 -17 -10 -19 9 -9 -41 -112 -51 -106 -6 3 -7 1 -3 -5 8 -13
-21 -75 -32 -68 -4 2 -8 -7 -8 -21 -1 -13 -9 -32 -18 -42 -9 -10 -16 -22 -16
-27 0 -5 -11 -21 -25 -36 -14 -15 -25 -30 -25 -33 0 -12 -72 -98 -139 -167
-46 -48 -68 -64 -74 -55 -6 8 -7 7 -4 -5 6 -19 -50 -71 -66 -61 -6 3 -7 1 -3
-5 6 -11 -31 -38 -47 -34 -4 1 -6 -3 -5 -8 2 -6 -10 -18 -27 -28 -16 -9 -32
-19 -35 -22 -18 -19 -62 -40 -72 -34 -7 4 -8 3 -4 -4 8 -14 -211 -125 -231
-117 -8 2 -11 0 -8 -5 5 -9 -16 -14 -52 -13 -7 1 -11 -2 -9 -6 8 -12 -168 -56
-185 -46 -5 4 -9 2 -9 -3 0 -5 -6 -9 -12 -10 -7 0 -44 -4 -83 -9 -154 -17
-438 -5 -515 23 -8 3 -26 8 -40 10 -14 3 -45 12 -70 21 -25 8 -50 16 -56 17
-32 5 -182 81 -177 90 3 5 1 6 -5 3 -15 -10 -43 3 -35 16 3 6 1 7 -5 3 -14 -9
-203 115 -195 127 3 6 1 7 -6 3 -15 -10 -43 13 -34 27 3 6 1 7 -6 3 -13 -9
-43 18 -33 29 4 5 2 5 -5 1 -7 -4 -46 29 -98 81 -125 127 -131 133 -120 133 6
0 6 3 0 8 -25 18 -64 75 -59 84 4 6 3 8 -3 5 -5 -3 -17 7 -27 24 -9 16 -14 29
-11 29 3 0 -3 10 -15 22 -11 12 -20 30 -20 39 0 10 -3 19 -7 21 -14 6 -44 68
-38 78 3 6 2 10 -3 10 -10 0 -29 42 -34 75 -2 11 -7 23 -11 26 -5 4 -10 18
-10 33 -1 14 -6 26 -11 26 -4 0 -6 7 -2 15 3 8 0 15 -6 15 -6 0 -8 3 -5 7 4 3
2 12 -4 20 -9 10 -8 13 2 13 11 0 11 2 0 9 -12 8 -13 12 -1 25 11 14 11 16 -2
11 -8 -3 -15 0 -15 7 0 7 -4 22 -8 33 -5 16 -5 17 4 5 8 -12 10 -11 8 7 0 12
-5 19 -11 16 -5 -3 -7 5 -4 20 3 15 1 24 -4 21 -6 -4 -7 7 -5 25 3 17 1 31 -4
31 -6 0 -7 6 -2 13 11 17 13 38 3 32 -5 -3 -7 10 -6 27 1 18 -2 39 -7 46 -6 7
-6 12 1 12 7 0 8 10 2 30 -5 17 -6 30 -2 30 4 0 6 28 5 62 -2 41 1 65 10 70 8
5 9 8 0 8 -13 0 -12 18 2 39 5 10 4 16 -3 19 -9 3 -8 10 1 30 7 15 12 37 11
50 0 12 2 22 6 22 4 0 7 14 8 31 0 17 6 36 12 44 6 7 10 17 9 21 -4 23 2 35
14 28 9 -5 9 -4 1 5 -13 14 -7 51 7 51 5 0 8 4 7 9 -2 5 6 17 17 25 17 14 18
15 2 10 -17 -6 -18 -5 -3 31 9 21 24 44 34 52 9 8 11 12 5 8 -15 -7 -16 -4 -7
19 3 9 11 13 17 9 6 -4 8 0 4 10 -3 9 -2 19 4 22 5 4 6 11 3 17 -5 7 -2 9 8 6
10 -4 14 0 14 16 -1 12 4 20 12 18 8 -1 11 2 8 7 -8 12 14 61 27 61 5 0 4 -6
-2 -14 -9 -11 -9 -16 0 -22 7 -4 9 -3 5 4 -3 6 -2 13 3 17 6 3 8 12 4 20 -3 8
0 15 7 15 6 0 8 5 5 10 -3 6 -1 10 6 10 7 0 9 3 6 6 -8 9 11 44 23 44 6 0 10
-8 11 -17 0 -12 2 -13 6 -5 3 7 0 19 -6 26 -8 10 -6 18 10 32 17 16 22 16 29
4 6 -9 10 -10 10 -3 0 6 -5 15 -10 18 -17 11 -2 23 23 19 12 -2 16 -2 10 2
-21 9 -15 26 7 19 12 -4 20 -2 20 5 0 6 -4 9 -9 5 -5 -3 -13 0 -17 6 -4 8 -3
9 4 5 7 -4 12 -1 12 8 0 9 6 16 14 16 7 0 16 9 19 19 3 14 11 18 26 14 11 -3
18 -10 14 -16 -3 -6 -1 -7 5 -3 6 4 9 13 6 21 -4 8 -10 12 -15 9 -23 -14 5 24
30 41 16 10 27 23 24 28 -3 5 4 4 16 -2 18 -10 20 -9 14 5 -4 12 -3 15 5 10 7
-4 12 -1 12 7 0 20 57 60 66 45 5 -7 3 -8 -6 -3 -9 6 -11 4 -5 -5 5 -9 4 -11
-3 -6 -7 4 -12 5 -12 2 0 -16 20 -13 36 6 11 12 13 18 5 13 -9 -5 -12 -3 -9 5
6 19 25 24 31 8 2 -7 3 -5 2 4 -2 10 1 21 6 24 9 5 13 -11 9 -31 -1 -5 2 -6 6
-2 5 4 9 17 9 27 0 22 17 28 24 9 2 -7 -1 -9 -9 -4 -9 6 -11 4 -5 -5 6 -10 10
-10 20 3 9 13 15 14 25 4 12 -10 12 -9 1 5 -7 10 -17 15 -22 12 -18 -11 -8 8
14 27 25 21 37 24 37 8 0 -5 -5 -7 -12 -3 -7 4 -8 3 -4 -4 5 -8 13 -9 25 -2
10 5 22 6 26 2 5 -4 5 -1 1 6 -4 7 -12 10 -17 7 -5 -4 -9 -2 -9 2 0 8 65 48
79 48 3 1 16 6 29 13 12 7 22 10 22 7 0 -3 12 2 26 12 15 9 36 19 48 20 11 2
25 8 30 13 5 5 17 5 29 -2 16 -8 19 -8 14 5 -4 10 4 17 26 22 49 12 50 12 77
-4 14 -8 22 -11 18 -7 -10 12 11 48 24 40 5 -4 14 0 19 7 7 12 9 12 9 0 0 -11
3 -11 14 -2 11 9 20 9 35 2 25 -14 32 -14 29 0 -2 6 3 14 10 16 6 3 12 0 12
-7 0 -6 -4 -9 -8 -6 -4 2 -8 -4 -8 -15 0 -25 3 -24 20 9 8 15 15 21 16 14 0
-7 5 -10 10 -7 6 4 7 11 4 17 -4 7 -2 8 4 4 6 -4 8 -14 5 -23 -4 -11 -3 -14 5
-9 7 4 12 13 12 20 0 16 48 16 54 -1 3 -7 -3 -17 -12 -22 -9 -6 -12 -10 -7
-10 13 0 45 24 45 33 0 4 -6 4 -12 0 -10 -6 -10 -4 0 7 9 10 15 10 24 1 7 -7
8 -12 3 -12 -4 0 0 -9 10 -20 10 -11 23 -20 28 -20 6 0 2 6 -8 14 -25 18 -28
45 -4 43 22 -1 25 -13 7 -20 -7 -3 2 -4 20 -2 18 2 32 -1 32 -7 0 -6 3 -9 6
-6 3 4 1 16 -5 27 -10 17 -9 20 4 15 8 -4 15 -11 15 -16z m-420 -38 c0 -5 -4
-10 -10 -10 -5 0 -10 5 -10 10 0 6 5 10 10 10 6 0 10 -4 10 -10z m740 0 c0 -5
-4 -10 -10 -10 -5 0 -10 5 -10 10 0 6 5 10 10 10 6 0 10 -4 10 -10z"/>
<path d="M2431 4048 l-22 -33 24 27 c14 15 28 24 33 20 4 -4 4 -1 0 6 -10 16
-9 17 -35 -20z"/>
<path d="M2687 4063 c3 -7 9 -10 14 -7 14 8 11 21 -5 21 -8 0 -12 -6 -9 -14z"/>
<path d="M2750 4058 c0 -4 7 -8 15 -8 8 0 15 4 15 8 0 5 -7 9 -15 9 -8 0 -15
-4 -15 -9z"/>
<path d="M2285 4050 c-4 -6 -11 -8 -16 -5 -5 4 -9 1 -9 -4 0 -6 5 -11 11 -11
5 0 7 -4 4 -10 -4 -6 1 -7 11 -3 12 4 14 8 6 11 -10 3 -10 7 -1 18 6 8 9 14 6
14 -3 0 -9 -5 -12 -10z"/>
<path d="M2233 4030 c-1 -11 2 -20 7 -20 4 0 7 7 6 15 -3 23 -12 26 -13 5z"/>
<path d="M2376 4033 c-6 -14 -5 -15 5 -6 7 7 10 15 7 18 -3 3 -9 -2 -12 -12z"/>
<path d="M2715 4040 c3 -5 8 -10 11 -10 2 0 4 5 4 10 0 6 -5 10 -11 10 -5 0
-7 -4 -4 -10z"/>
<path d="M2133 4017 c-12 -5 -21 -18 -20 -28 1 -9 5 -15 9 -13 5 3 6 9 3 14
-3 5 3 14 14 19 16 9 20 7 23 -7 3 -14 5 -14 10 4 6 23 -6 26 -39 11z"/>
<path d="M2310 4026 c0 -2 7 -7 16 -10 8 -3 12 -2 9 4 -6 10 -25 14 -25 6z"/>
<path d="M2890 4020 c0 -5 5 -10 11 -10 5 0 7 5 4 10 -3 6 -8 10 -11 10 -2 0
-4 -4 -4 -10z"/>
<path d="M2055 3990 c-3 -5 -1 -18 5 -27 9 -15 10 -14 4 7 -6 23 -6 24 12 10
18 -14 18 -14 5 3 -16 20 -18 20 -26 7z"/>
<path d="M1995 3970 c-3 -5 -1 -10 4 -10 6 0 11 5 11 10 0 6 -2 10 -4 10 -3 0
-8 -4 -11 -10z"/>
<path d="M2031 3964 c0 -11 3 -14 6 -6 3 7 2 16 -1 19 -3 4 -6 -2 -5 -13z"/>
<path d="M1960 3940 c-6 -11 -8 -20 -6 -20 3 0 10 9 16 20 6 11 8 20 6 20 -3
0 -10 -9 -16 -20z"/>
<path d="M1926 3935 c-10 -8 -23 -12 -27 -9 -5 3 -9 1 -9 -3 0 -5 10 -14 23
-22 15 -9 18 -10 10 -1 -9 10 -7 17 10 31 26 22 20 25 -7 4z"/>
<path d="M1859 3903 c-12 -14 -12 -16 0 -8 11 6 13 4 7 -10 -6 -16 -4 -16 10
-4 10 8 12 15 5 17 -6 2 -9 8 -5 13 9 15 -3 10 -17 -8z"/>
<path d="M3244 3906 c-9 -10 -5 -13 17 -13 16 0 28 1 27 1 -2 1 -10 7 -18 13
-11 8 -18 8 -26 -1z"/>
<path d="M3295 3880 c-3 -5 -1 -10 4 -10 6 0 11 5 11 10 0 6 -2 10 -4 10 -3 0
-8 -4 -11 -10z"/>
<path d="M3332 3864 c10 -10 20 -15 24 -12 3 4 -5 12 -18 18 -22 12 -22 12 -6
-6z"/>
<path d="M1775 3860 c-3 -5 -1 -10 4 -10 6 0 11 5 11 10 0 6 -2 10 -4 10 -3 0
-8 -4 -11 -10z"/>
<path d="M3385 3829 c-4 -6 -5 -12 -2 -15 2 -3 7 2 10 11 7 17 1 20 -8 4z"/>
<path d="M3340 3826 c0 -2 8 -10 18 -17 15 -13 16 -12 3 4 -13 16 -21 21 -21
13z"/>
<path d="M3457 3761 c-4 -17 -3 -21 5 -13 5 5 8 16 6 23 -3 8 -7 3 -11 -10z"/>
<path d="M1610 3745 c-11 -13 -10 -14 4 -9 9 3 16 10 16 15 0 13 -6 11 -20 -6z"/>
<path d="M3516 3698 c3 -5 10 -6 15 -3 13 9 11 12 -6 12 -8 0 -12 -4 -9 -9z"/>
<path d="M3556 3688 c3 -5 10 -6 15 -3 13 9 11 12 -6 12 -8 0 -12 -4 -9 -9z"/>
<path d="M1523 3674 c-15 -16 -16 -24 -4 -24 8 0 24 30 19 35 -2 2 -9 -3 -15
-11z"/>
<path d="M1550 3679 c0 -5 5 -7 10 -4 6 3 10 8 10 11 0 2 -4 4 -10 4 -5 0 -10
-5 -10 -11z"/>
<path d="M3576 3672 c-3 -5 1 -9 9 -9 8 0 12 4 9 9 -3 4 -7 8 -9 8 -2 0 -6 -4
-9 -8z"/>
<path d="M1467 3610 c3 -11 9 -22 13 -25 5 -3 6 4 3 15 -3 11 -9 22 -13 25 -5
3 -6 -4 -3 -15z"/>
<path d="M3650 3600 c-9 -6 -10 -10 -3 -10 6 0 15 5 18 10 8 12 4 12 -15 0z"/>
<path d="M1430 3581 c0 -6 4 -12 8 -15 5 -3 9 1 9 9 0 8 -4 15 -9 15 -4 0 -8
-4 -8 -9z"/>
<path d="M3670 3579 c0 -5 5 -7 10 -4 9 5 14 -6 12 -26 -1 -3 5 -6 13 -6 11 0
10 5 -2 24 -16 24 -33 31 -33 12z"/>
<path d="M1339 3483 c-13 -16 -12 -17 4 -4 9 7 17 15 17 17 0 8 -8 3 -21 -13z"/>
<path d="M2429 3482 c-2 -5 -20 -12 -39 -15 -52 -7 -163 -37 -176 -48 -6 -5
-14 -6 -17 -2 -4 3 -7 2 -7 -4 0 -6 -12 -14 -27 -18 -15 -3 -39 -15 -54 -26
-15 -10 -32 -19 -37 -19 -6 0 -12 -3 -14 -7 -3 -9 -73 -62 -85 -66 -4 -1 -25
-21 -47 -44 -22 -23 -44 -39 -50 -36 -6 3 -8 3 -4 -2 6 -7 -48 -85 -72 -105
-4 -3 -9 -13 -13 -23 -4 -10 -11 -15 -17 -12 -5 3 -7 0 -4 -8 3 -8 -2 -21 -10
-30 -8 -8 -12 -17 -9 -21 4 -3 1 -6 -5 -6 -7 0 -12 -7 -12 -15 0 -8 -4 -15 -9
-15 -5 0 -8 -8 -7 -17 0 -10 -4 -17 -10 -16 -7 1 -9 -8 -6 -24 3 -17 1 -24 -6
-19 -6 3 -14 1 -18 -5 -5 -8 -3 -9 6 -4 10 6 12 4 6 -11 -4 -10 -9 -26 -11
-34 -2 -8 -4 -16 -5 -17 -2 -2 -4 -7 -5 -13 -1 -5 -3 -11 -4 -12 -1 -2 -4 -23
-7 -48 -2 -24 -9 -47 -15 -51 -8 -5 -8 -8 0 -13 6 -4 9 -11 6 -16 -2 -4 -6
-28 -6 -53 -2 -30 -6 -44 -13 -40 -6 4 -5 0 2 -9 14 -17 13 -53 -2 -77 -7 -10
-6 -12 4 -6 10 6 12 4 7 -8 -3 -9 -2 -19 4 -23 6 -4 6 -11 -2 -20 -9 -11 -9
-14 1 -14 8 0 11 -3 8 -6 -3 -3 -3 -17 1 -32 6 -19 3 -31 -8 -40 -14 -11 -14
-11 3 -5 13 4 17 3 12 -5 -4 -7 -2 -12 6 -12 10 0 10 -2 -1 -9 -10 -7 -11 -9
-1 -13 7 -2 15 -15 17 -27 2 -13 15 -46 29 -74 13 -28 22 -57 20 -64 -4 -9 -1
-11 6 -7 8 5 9 2 5 -9 -3 -9 -2 -19 4 -22 5 -4 6 -11 3 -17 -4 -7 -2 -8 5 -4
9 6 9 12 0 24 -12 16 -12 16 5 1 10 -10 19 -31 21 -48 1 -18 6 -35 10 -39 5
-4 5 1 2 11 -12 32 8 17 54 -43 26 -32 48 -58 51 -57 2 1 -4 -4 -12 -12 -13
-11 -12 -12 5 -7 15 4 33 -5 64 -33 26 -23 38 -41 32 -45 -6 -4 -11 -12 -11
-17 0 -6 7 -3 16 5 20 21 35 11 30 -20 -5 -28 -3 -30 15 -7 12 14 12 16 0 8
-10 -6 -12 -4 -6 4 14 23 28 -5 15 -30 -10 -22 -10 -22 3 -6 18 22 20 22 66
-7 21 -14 41 -23 43 -20 3 2 11 -3 19 -13 12 -14 12 -16 0 -8 -10 5 -12 4 -7
-4 6 -9 11 -9 22 0 12 9 14 8 11 -7 -1 -11 -6 -24 -9 -30 -4 -6 -1 -11 7 -11
8 0 13 3 10 5 -3 3 1 12 8 20 10 13 9 14 -2 7 -9 -5 -12 -4 -8 3 4 5 17 8 29
4 12 -3 17 -7 10 -10 -6 -2 -12 -8 -12 -13 0 -6 7 -6 18 0 10 6 24 6 32 1 8
-5 18 -6 22 -4 4 3 8 0 8 -6 0 -6 10 -8 26 -4 18 5 25 3 21 -3 -4 -6 0 -16 9
-23 12 -10 17 -11 27 -1 9 10 8 11 -5 6 -13 -5 -18 -2 -18 11 0 11 3 15 8 9 4
-6 14 -10 22 -10 8 1 20 -1 25 -4 6 -3 24 -6 40 -6 25 0 30 -4 28 -23 -2 -19
-1 -20 11 -10 7 7 13 17 11 23 -1 5 0 7 2 2 3 -4 10 -4 16 0 6 4 8 0 4 -10 -4
-11 -2 -14 8 -10 8 3 12 9 9 14 -3 5 -1 9 5 9 5 0 13 -10 16 -21 5 -16 9 -18
15 -9 4 7 13 9 19 6 6 -4 8 -12 5 -18 -4 -7 -2 -8 5 -4 16 10 -7 39 -26 32 -7
-3 -13 -1 -13 5 0 7 10 9 26 5 19 -5 24 -4 18 6 -5 8 2 6 16 -4 14 -9 24 -22
22 -28 -1 -6 2 -9 8 -5 6 4 7 12 1 24 -8 14 -6 17 12 16 12 -1 27 0 32 4 6 3
19 6 30 7 11 1 31 5 45 8 14 3 34 -1 47 -9 26 -17 32 -9 7 10 -16 11 -16 12 0
18 9 4 15 3 12 -2 -3 -5 1 -12 10 -15 21 -8 21 -8 28 10 5 14 4 15 -9 4 -8 -7
-15 -8 -15 -2 0 8 22 23 40 26 3 1 11 5 19 10 9 6 12 5 7 -2 -4 -7 4 -10 21
-8 16 1 29 5 31 9 5 16 1 19 -11 8 -8 -6 -17 -8 -20 -5 -8 8 59 45 76 43 24
-3 37 1 37 12 0 8 -5 8 -17 -1 -10 -7 -3 2 16 18 34 31 58 33 47 5 -4 -8 -1
-11 5 -8 6 4 8 14 5 22 -9 22 13 46 29 33 10 -8 15 -8 21 1 4 8 3 9 -4 5 -7
-4 -12 -1 -12 9 0 12 4 14 19 5 29 -15 37 -12 15 6 -19 15 -18 15 3 11 20 -4
21 -3 12 15 -9 17 -8 19 9 14 16 -6 19 -3 15 12 -2 11 1 23 8 27 8 6 10 4 4
-4 -6 -10 -3 -11 12 -2 11 6 24 7 29 3 5 -4 6 -3 2 2 -4 5 0 14 9 21 13 9 13
14 3 20 -8 5 -11 4 -7 -1 3 -6 -4 -16 -16 -23 -21 -14 -21 -13 -5 10 11 17 24
23 44 22 16 -1 21 1 12 4 -22 6 -23 17 -1 43 11 13 21 16 28 10 8 -7 12 -5 12
5 0 7 -3 14 -6 13 -22 -2 -20 5 5 28 16 15 24 23 17 20 -7 -4 0 20 15 53 15
34 34 61 42 61 13 0 13 1 0 10 -11 7 -11 10 -2 10 7 0 11 4 8 8 -7 11 18 94
26 86 4 -3 4 4 1 16 -4 13 0 26 8 31 12 7 12 9 0 9 -9 0 -10 4 -4 13 5 6 8 24
7 40 -2 15 1 25 7 22 5 -4 5 3 -1 19 -6 17 -6 26 3 30 8 3 7 5 -2 5 -11 1 -10
5 5 17 10 8 13 12 5 8 -11 -5 -13 0 -9 24 2 17 1 29 -4 26 -4 -3 -8 0 -8 5 0
6 4 11 9 11 13 0 22 28 10 35 -5 4 -9 3 -8 -2 1 -4 0 -12 -1 -18 -3 -12 -29
145 -33 192 -1 17 -6 29 -11 25 -5 -3 -7 2 -3 11 3 10 2 17 -4 17 -6 0 -8 4
-5 9 4 5 3 11 -1 13 -5 1 -26 39 -47 83 -22 44 -49 90 -62 104 -12 13 -20 30
-17 38 3 8 1 13 -4 11 -5 -2 -35 25 -66 59 -32 34 -80 78 -107 99 -27 20 -46
42 -43 48 3 6 3 8 -2 4 -4 -4 -35 8 -69 27 -95 52 -248 105 -306 105 -11 0
-20 6 -20 13 0 8 -3 9 -8 1 -4 -6 -16 -10 -27 -8 -26 4 -152 5 -185 1 -14 -1
-28 1 -31 6 -4 5 -8 5 -10 -1z"/>
<path d="M1350 3459 c0 -5 5 -7 10 -4 6 3 10 8 10 11 0 2 -4 4 -10 4 -5 0 -10
-5 -10 -11z"/>
<path d="M3770 3456 c0 -2 7 -9 15 -16 9 -7 15 -8 15 -2 0 5 -7 12 -15 16 -8
3 -15 4 -15 2z"/>
<path d="M1306 3433 c-6 -14 -5 -15 5 -6 7 7 10 15 7 18 -3 3 -9 -2 -12 -12z"/>
<path d="M1296 3375 c-9 -26 -7 -32 5 -12 6 10 9 21 6 23 -2 3 -7 -2 -11 -11z"/>
<path d="M3835 3381 c-6 -11 13 -26 22 -17 4 3 1 6 -6 6 -7 0 -9 5 -6 10 3 6
4 10 1 10 -3 0 -7 -4 -11 -9z"/>
<path d="M1247 3319 c7 -7 15 -10 18 -7 3 3 -2 9 -12 12 -14 6 -15 5 -6 -5z"/>
<path d="M1224 3282 c4 -3 14 -7 22 -8 9 -1 13 0 10 4 -4 3 -14 7 -22 8 -9 1
-13 0 -10 -4z"/>
<path d="M1195 3201 c-3 -5 -2 -12 3 -15 5 -3 9 1 9 9 0 17 -3 19 -12 6z"/>
<path d="M3935 3161 c-3 -5 -2 -12 3 -15 5 -3 9 1 9 9 0 17 -3 19 -12 6z"/>
<path d="M1155 3140 c3 -5 8 -10 11 -10 2 0 4 5 4 10 0 6 -5 10 -11 10 -5 0
-7 -4 -4 -10z"/>
<path d="M3997 3035 c-4 -8 -3 -16 1 -19 4 -3 9 4 9 15 2 23 -3 25 -10 4z"/>
<path d="M1085 2920 c-3 -6 1 -7 9 -4 18 7 21 14 7 14 -6 0 -13 -4 -16 -10z"/>
<path d="M4035 2860 c-3 -5 -1 -10 4 -10 6 0 11 5 11 10 0 6 -2 10 -4 10 -3 0
-8 -4 -11 -10z"/>
<path d="M4056 2742 c-3 -5 1 -9 9 -9 8 0 12 4 9 9 -3 4 -7 8 -9 8 -2 0 -6 -4
-9 -8z"/>
<path d="M3466 2302 c-3 -5 1 -9 9 -9 8 0 12 4 9 9 -3 4 -7 8 -9 8 -2 0 -6 -4
-9 -8z"/>
<path d="M3475 2270 c-4 -6 -11 -7 -17 -4 -7 4 -8 2 -4 -5 6 -9 11 -9 22 0 14
11 18 19 10 19 -3 0 -8 -5 -11 -10z"/>
<path d="M3430 2199 c0 -5 5 -7 10 -4 6 3 10 8 10 11 0 2 -4 4 -10 4 -5 0 -10
-5 -10 -11z"/>
<path d="M1685 2180 c10 -11 20 -20 22 -20 2 0 -2 9 -9 20 -7 11 -17 20 -22
20 -5 0 -1 -9 9 -20z"/>
<path d="M3410 2160 c-6 -11 -8 -20 -6 -20 3 0 10 9 16 20 6 11 8 20 6 20 -3
0 -10 -9 -16 -20z"/>
<path d="M1696 2142 c-2 -4 0 -14 6 -22 8 -12 9 -12 5 2 -3 9 -1 19 6 22 9 3
9 5 0 5 -6 1 -14 -3 -17 -7z"/>
<path d="M3390 2126 c0 -2 7 -7 16 -10 8 -3 12 -2 9 4 -6 10 -25 14 -25 6z"/>
<path d="M3380 2080 c-9 -6 -10 -10 -3 -10 6 0 15 5 18 10 8 12 4 12 -15 0z"/>
<path d="M1790 1984 c-11 -15 -11 -16 0 -7 11 10 17 8 31 -9 10 -11 16 -25 13
-29 -3 -5 0 -9 5 -9 17 0 13 17 -12 46 -22 25 -23 25 -37 8z"/>
<path d="M1855 1920 c-3 -5 -1 -10 4 -10 6 0 11 5 11 10 0 6 -2 10 -4 10 -3 0
-8 -4 -11 -10z"/>
<path d="M1911 1873 c7 -12 15 -20 18 -17 3 2 -3 12 -13 22 -17 16 -18 16 -5
-5z"/>
<path d="M3241 1876 c-9 -11 -9 -16 1 -22 7 -4 10 -4 6 1 -4 4 -3 14 3 22 6 7
9 13 6 13 -2 0 -10 -6 -16 -14z"/>
<path d="M1890 1860 c0 -5 5 -10 11 -10 5 0 7 5 4 10 -3 6 -8 10 -11 10 -2 0
-4 -4 -4 -10z"/>
<path d="M1956 1832 c-3 -5 1 -9 9 -9 8 0 12 4 9 9 -3 4 -7 8 -9 8 -2 0 -6 -4
-9 -8z"/>
<path d="M3136 1821 c-3 -5 1 -14 8 -20 10 -9 16 -9 21 -1 4 6 1 9 -7 8 -7 -2
-12 3 -10 10 2 14 -4 16 -12 3z"/>
<path d="M3086 1785 c-16 -12 -17 -15 -4 -15 9 0 18 7 22 15 7 18 6 18 -18 0z"/>
<path d="M2061 1746 c-10 -11 -9 -14 1 -12 14 2 23 15 15 22 -2 2 -10 -2 -16
-10z"/>
<path d="M2095 1730 c-4 -6 -4 -14 -1 -17 3 -4 6 -1 6 6 0 7 5 9 10 6 6 -4 8
-10 6 -14 -3 -4 4 -7 14 -8 11 -1 23 3 26 9 5 7 2 8 -5 4 -7 -5 -20 -1 -31 9
-13 11 -20 13 -25 5z"/>
<path d="M3002 1731 c-7 -4 -3 -12 9 -20 12 -7 18 -8 15 -2 -3 5 2 11 11 13
15 3 15 5 -3 10 -12 3 -27 3 -32 -1z"/>
<path d="M2136 1682 c-2 -4 4 -8 14 -8 10 0 16 4 14 8 -3 4 -9 8 -14 8 -5 0
-11 -4 -14 -8z"/>
<path d="M2913 1672 c-8 -14 -8 -19 1 -19 7 0 13 9 13 19 1 10 1 18 0 18 -1 0
-7 -8 -14 -18z"/>
<path d="M2950 1669 c0 -5 5 -7 10 -4 6 3 10 8 10 11 0 2 -4 4 -10 4 -5 0 -10
-5 -10 -11z"/>
<path d="M2279 1658 c0 -2 -2 -11 -4 -21 -3 -15 -1 -16 11 -6 7 6 11 15 8 20
-5 9 -13 12 -15 7z"/>
<path d="M2330 1641 c0 -6 4 -13 10 -16 6 -3 7 1 4 9 -7 18 -14 21 -14 7z"/>
<path d="M2780 1640 c0 -5 5 -10 11 -10 5 0 7 5 4 10 -3 6 -8 10 -11 10 -2 0
-4 -4 -4 -10z"/>
<path d="M2810 1640 c0 -5 5 -10 11 -10 5 0 7 5 4 10 -3 6 -8 10 -11 10 -2 0
-4 -4 -4 -10z"/>
<path d="M2412 1636 c4 -5 0 -14 -9 -21 -13 -9 -13 -14 -3 -20 9 -5 11 -4 6 3
-4 7 -2 13 3 13 6 1 15 2 20 3 5 0 13 6 18 11 4 6 4 7 -1 3 -5 -4 -16 -2 -25
4 -9 7 -13 8 -9 4z"/>
<path d="M2714 1628 c-3 -5 -10 -6 -15 -3 -5 4 -9 1 -9 -4 0 -6 10 -9 23 -7
12 3 25 5 30 5 4 1 7 5 7 9 0 11 -29 11 -36 0z"/>
<path d="M2465 1622 c2 -2 -4 -12 -13 -21 -10 -9 -12 -12 -5 -8 6 5 18 5 25 1
7 -4 10 -4 6 1 -4 4 -3 13 2 20 7 8 5 12 -5 12 -8 0 -13 -2 -10 -5z"/>
<path d="M2636 1607 c3 -10 9 -15 12 -12 3 3 0 11 -7 18 -10 9 -11 8 -5 -6z"/>
<path d="M2773 1605 c0 -8 4 -12 9 -9 5 3 6 10 3 15 -9 13 -12 11 -12 -6z"/>
<path d="M2516 1578 c3 -5 10 -6 15 -3 13 9 11 12 -6 12 -8 0 -12 -4 -9 -9z"/>
<path d="M128 532 c9 -10 19 -17 21 -16 6 5 -20 34 -30 34 -5 0 -1 -8 9 -18z"/>
<path d="M4950 478 c0 -4 4 -8 9 -8 6 0 12 4 15 8 3 5 -1 9 -9 9 -8 0 -15 -4
-15 -9z"/>
<path d="M189 443 c-11 -15 -11 -16 1 -5 17 15 34 16 25 2 -4 -6 -1 -9 7 -8 7
2 12 -3 11 -9 -2 -7 3 -12 10 -10 6 1 11 -4 9 -11 -1 -8 2 -11 9 -7 7 5 1 17
-17 36 -32 34 -37 35 -55 12z"/>
<path d="M4830 399 c-7 -11 -10 -23 -7 -25 2 -2 9 7 15 21 14 30 7 33 -8 4z"/>
<path d="M4855 400 c-3 -6 1 -7 9 -4 18 7 21 14 7 14 -6 0 -13 -4 -16 -10z"/>
<path d="M1005 390 c-3 -5 -13 -6 -22 -3 -11 4 -14 3 -9 -5 10 -17 33 -15 40
3 6 17 0 20 -9 5z"/>
<path d="M1150 392 c0 -13 48 -33 54 -23 3 5 17 7 31 6 14 -2 27 0 29 4 6 10
-50 8 -60 -2 -4 -4 -18 0 -31 8 -13 9 -23 12 -23 7z"/>
<path d="M1485 390 c-3 -5 -13 -6 -22 -3 -11 4 -14 3 -9 -5 10 -17 33 -15 40
3 6 17 0 20 -9 5z"/>
<path d="M1950 392 c0 -13 48 -33 54 -23 3 5 17 7 31 6 14 -2 27 0 29 4 6 10
-50 8 -60 -2 -4 -4 -18 0 -31 8 -13 9 -23 12 -23 7z"/>
<path d="M2270 392 c0 -13 48 -33 54 -23 3 5 17 7 31 6 14 -2 27 0 29 4 6 10
-50 8 -60 -2 -4 -4 -18 0 -31 8 -13 9 -23 12 -23 7z"/>
<path d="M2925 390 c-3 -5 -13 -6 -22 -3 -11 4 -14 3 -9 -5 10 -17 33 -15 40
3 6 17 0 20 -9 5z"/>
<path d="M3070 392 c0 -13 48 -33 54 -23 3 5 17 7 31 6 14 -2 27 0 29 4 6 10
-50 8 -60 -2 -4 -4 -18 0 -31 8 -13 9 -23 12 -23 7z"/>
<path d="M3405 390 c-3 -5 -13 -6 -22 -3 -11 4 -14 3 -9 -5 10 -17 33 -15 40
3 6 17 0 20 -9 5z"/>
<path d="M3870 392 c0 -13 48 -33 54 -23 3 5 17 7 31 6 14 -2 27 0 29 4 6 10
-50 8 -60 -2 -4 -4 -18 0 -31 8 -13 9 -23 12 -23 7z"/>
<path d="M4190 392 c0 -13 48 -33 54 -23 3 5 17 7 31 6 14 -2 27 0 29 4 6 10
-50 8 -60 -2 -4 -4 -18 0 -31 8 -13 9 -23 12 -23 7z"/>
<path d="M545 376 c-11 -8 -25 -12 -32 -9 -7 3 -13 1 -13 -5 0 -6 6 -9 14 -8
14 2 65 35 55 35 -3 1 -14 -5 -24 -13z"/>
<path d="M587 373 c3 -7 6 -13 8 -13 1 0 7 6 13 13 8 10 6 13 -7 13 -11 0 -17
-6 -14 -13z"/>
<path d="M670 377 c0 -6 3 -7 7 -4 3 4 12 -1 20 -11 12 -16 13 -16 7 1 -5 13
-2 16 10 11 9 -3 16 -2 16 3 0 4 -13 9 -30 9 -16 1 -30 -3 -30 -9z"/>
<path d="M760 381 c0 -6 4 -13 10 -16 6 -3 7 1 4 9 -7 18 -14 21 -14 7z"/>
<path d="M792 374 c10 -10 20 -16 22 -13 3 3 -5 11 -17 18 -21 13 -21 12 -5
-5z"/>
<path d="M830 377 c0 -6 3 -7 7 -4 3 4 12 -1 20 -11 12 -16 13 -16 7 1 -5 13
-2 16 10 11 9 -3 16 -2 16 3 0 4 -13 9 -30 9 -16 1 -30 -3 -30 -9z"/>
<path d="M920 381 c0 -6 4 -13 10 -16 6 -3 7 1 4 9 -7 18 -14 21 -14 7z"/>
<path d="M951 373 c7 -12 15 -20 18 -17 3 2 -3 12 -13 22 -17 16 -18 16 -5 -5z"/>
<path d="M1047 373 c3 -8 9 -10 12 -5 3 5 14 8 24 6 11 -1 16 0 12 4 -3 3 -17
7 -30 8 -16 0 -22 -3 -18 -13z"/>
<path d="M1115 382 c3 -3 0 -11 -7 -19 -8 -11 -7 -12 5 -7 21 7 29 31 11 31
-8 0 -12 -3 -9 -5z"/>
<path d="M1527 373 c3 -8 9 -10 12 -5 3 5 14 8 24 6 11 -1 16 0 12 4 -3 3 -17
7 -30 8 -16 0 -22 -3 -18 -13z"/>
<path d="M1630 377 c0 -6 3 -7 7 -4 3 4 12 -1 20 -11 12 -16 13 -16 7 1 -5 13
-2 16 10 11 9 -3 16 -2 16 3 0 4 -13 9 -30 9 -16 1 -30 -3 -30 -9z"/>
<path d="M1720 381 c0 -6 4 -13 10 -16 6 -3 7 1 4 9 -7 18 -14 21 -14 7z"/>
<path d="M1752 374 c10 -10 20 -16 22 -13 3 3 -5 11 -17 18 -21 13 -21 12 -5
-5z"/>
<path d="M1790 377 c0 -6 3 -7 7 -4 3 4 12 -1 20 -11 12 -16 13 -16 7 1 -5 13
-2 16 10 11 9 -3 16 -2 16 3 0 4 -13 9 -30 9 -16 1 -30 -3 -30 -9z"/>
<path d="M1880 381 c0 -6 4 -13 10 -16 6 -3 7 1 4 9 -7 18 -14 21 -14 7z"/>
<path d="M1900 384 c0 -1 6 -7 14 -13 10 -9 15 -8 19 2 3 8 -3 13 -14 13 -11
0 -19 -1 -19 -2z"/>
<path d="M2076 373 c-6 -14 -5 -15 5 -6 7 7 10 15 7 18 -3 3 -9 -2 -12 -12z"/>
<path d="M2113 378 c-15 -20 -25 -38 -20 -38 3 0 12 11 21 25 17 26 16 35 -1
13z"/>
<path d="M2190 370 c6 -11 13 -20 16 -20 2 0 0 9 -6 20 -6 11 -13 20 -16 20
-2 0 0 -9 6 -20z"/>
<path d="M2399 373 c-13 -16 -12 -17 4 -4 16 13 21 21 13 21 -2 0 -10 -8 -17
-17z"/>
<path d="M2465 376 c-11 -8 -25 -12 -32 -9 -7 3 -13 1 -13 -5 0 -6 6 -9 14 -8
14 2 65 35 55 35 -3 1 -14 -5 -24 -13z"/>
<path d="M2507 373 c3 -7 6 -13 8 -13 1 0 7 6 13 13 8 10 6 13 -7 13 -11 0
-17 -6 -14 -13z"/>
<path d="M2590 377 c0 -6 3 -7 7 -4 3 4 12 -1 20 -11 12 -16 13 -16 7 1 -5 13
-2 16 10 11 9 -3 16 -2 16 3 0 4 -13 9 -30 9 -16 1 -30 -3 -30 -9z"/>
<path d="M2680 381 c0 -6 4 -13 10 -16 6 -3 7 1 4 9 -7 18 -14 21 -14 7z"/>
<path d="M2712 374 c10 -10 20 -16 22 -13 3 3 -5 11 -17 18 -21 13 -21 12 -5
-5z"/>
<path d="M2750 377 c0 -6 3 -7 7 -4 3 4 12 -1 20 -11 12 -16 13 -16 7 1 -5 13
-2 16 10 11 9 -3 16 -2 16 3 0 4 -13 9 -30 9 -16 1 -30 -3 -30 -9z"/>
<path d="M2840 381 c0 -6 4 -13 10 -16 6 -3 7 1 4 9 -7 18 -14 21 -14 7z"/>
<path d="M2871 373 c7 -12 15 -20 18 -17 3 2 -3 12 -13 22 -17 16 -18 16 -5
-5z"/>
<path d="M2967 373 c3 -8 9 -10 12 -5 3 5 14 8 24 6 11 -1 16 0 12 4 -3 3 -17
7 -30 8 -16 0 -22 -3 -18 -13z"/>
<path d="M3035 382 c3 -3 0 -11 -7 -19 -8 -11 -7 -12 5 -7 21 7 29 31 11 31
-8 0 -12 -3 -9 -5z"/>
<path d="M3447 373 c3 -8 9 -10 12 -5 3 5 14 8 24 6 11 -1 16 0 12 4 -3 3 -17
7 -30 8 -16 0 -22 -3 -18 -13z"/>
<path d="M3550 377 c0 -6 3 -7 7 -4 3 4 12 -1 20 -11 12 -16 13 -16 7 1 -5 13
-2 16 10 11 9 -3 16 -2 16 3 0 4 -13 9 -30 9 -16 1 -30 -3 -30 -9z"/>
<path d="M3640 381 c0 -6 4 -13 10 -16 6 -3 7 1 4 9 -7 18 -14 21 -14 7z"/>
<path d="M3672 374 c10 -10 20 -16 22 -13 3 3 -5 11 -17 18 -21 13 -21 12 -5
-5z"/>
<path d="M3710 377 c0 -6 3 -7 7 -4 3 4 12 -1 20 -11 12 -16 13 -16 7 1 -5 13
-2 16 10 11 9 -3 16 -2 16 3 0 4 -13 9 -30 9 -16 1 -30 -3 -30 -9z"/>
<path d="M3800 381 c0 -6 4 -13 10 -16 6 -3 7 1 4 9 -7 18 -14 21 -14 7z"/>
<path d="M3820 384 c0 -1 6 -7 14 -13 10 -9 15 -8 19 2 3 8 -3 13 -14 13 -11
0 -19 -1 -19 -2z"/>
<path d="M3996 373 c-6 -14 -5 -15 5 -6 7 7 10 15 7 18 -3 3 -9 -2 -12 -12z"/>
<path d="M4033 378 c-15 -20 -25 -38 -20 -38 3 0 12 11 21 25 17 26 16 35 -1
13z"/>
<path d="M4110 370 c6 -11 13 -20 16 -20 2 0 0 9 -6 20 -6 11 -13 20 -16 20
-2 0 0 -9 6 -20z"/>
<path d="M4319 373 c-13 -16 -12 -17 4 -4 16 13 21 21 13 21 -2 0 -10 -8 -17
-17z"/>
<path d="M4385 376 c-11 -8 -25 -12 -32 -9 -7 3 -13 1 -13 -5 0 -6 6 -9 14 -8
14 2 65 35 55 35 -3 1 -14 -5 -24 -13z"/>
<path d="M4427 373 c3 -7 6 -13 8 -13 1 0 7 6 13 13 8 10 6 13 -7 13 -11 0
-17 -6 -14 -13z"/>
<path d="M4510 377 c0 -6 3 -7 7 -4 3 4 12 -1 20 -11 12 -16 13 -16 7 1 -5 13
-2 16 10 11 9 -3 16 -2 16 3 0 4 -13 9 -30 9 -16 1 -30 -3 -30 -9z"/>
<path d="M4600 381 c0 -6 4 -13 10 -16 6 -3 7 1 4 9 -7 18 -14 21 -14 7z"/>
<path d="M4632 374 c10 -10 20 -16 22 -13 3 3 -5 11 -17 18 -21 13 -21 12 -5
-5z"/>
<path d="M4673 371 c1 -15 4 -17 14 -9 7 5 10 14 7 19 -10 16 -23 9 -21 -10z"/>
<path d="M4750 380 c0 -5 9 -8 20 -7 21 1 18 10 -5 13 -8 1 -15 -2 -15 -6z"/>
<path d="M741 364 c0 -11 3 -14 6 -6 3 7 2 16 -1 19 -3 4 -6 -2 -5 -13z"/>
<path d="M901 364 c0 -11 3 -14 6 -6 3 7 2 16 -1 19 -3 4 -6 -2 -5 -13z"/>
<path d="M1016 363 c-6 -14 -5 -15 5 -6 7 7 10 15 7 18 -3 3 -9 -2 -12 -12z"/>
<path d="M1496 363 c-6 -14 -5 -15 5 -6 7 7 10 15 7 18 -3 3 -9 -2 -12 -12z"/>
<path d="M1701 364 c0 -11 3 -14 6 -6 3 7 2 16 -1 19 -3 4 -6 -2 -5 -13z"/>
<path d="M1861 364 c0 -11 3 -14 6 -6 3 7 2 16 -1 19 -3 4 -6 -2 -5 -13z"/>
<path d="M2661 364 c0 -11 3 -14 6 -6 3 7 2 16 -1 19 -3 4 -6 -2 -5 -13z"/>
<path d="M2821 364 c0 -11 3 -14 6 -6 3 7 2 16 -1 19 -3 4 -6 -2 -5 -13z"/>
<path d="M2936 363 c-6 -14 -5 -15 5 -6 7 7 10 15 7 18 -3 3 -9 -2 -12 -12z"/>
<path d="M3416 363 c-6 -14 -5 -15 5 -6 7 7 10 15 7 18 -3 3 -9 -2 -12 -12z"/>
<path d="M3621 364 c0 -11 3 -14 6 -6 3 7 2 16 -1 19 -3 4 -6 -2 -5 -13z"/>
<path d="M3781 364 c0 -11 3 -14 6 -6 3 7 2 16 -1 19 -3 4 -6 -2 -5 -13z"/>
<path d="M4581 364 c0 -11 3 -14 6 -6 3 7 2 16 -1 19 -3 4 -6 -2 -5 -13z"/>
<path d="M415 360 c3 -5 8 -10 11 -10 2 0 4 5 4 10 0 6 -5 10 -11 10 -5 0 -7
-4 -4 -10z"/>
<path d="M1275 360 c3 -5 8 -10 11 -10 2 0 4 5 4 10 0 6 -5 10 -11 10 -5 0 -7
-4 -4 -10z"/>
<path d="M1586 361 c-4 -5 3 -7 14 -4 23 6 26 13 6 13 -8 0 -17 -4 -20 -9z"/>
<path d="M2126 362 c-2 -4 4 -8 14 -8 10 0 16 4 14 8 -3 4 -9 8 -14 8 -5 0
-11 -4 -14 -8z"/>
<path d="M3195 360 c3 -5 8 -10 11 -10 2 0 4 5 4 10 0 6 -5 10 -11 10 -5 0 -7
-4 -4 -10z"/>
<path d="M3506 361 c-4 -5 3 -7 14 -4 23 6 26 13 6 13 -8 0 -17 -4 -20 -9z"/>
<path d="M4046 362 c-2 -4 4 -8 14 -8 10 0 16 4 14 8 -3 4 -9 8 -14 8 -5 0
-11 -4 -14 -8z"/>
</g>
</svg>
