<?xml version="1.0" standalone="no"?>
<!DOCTYPE svg PUBLIC "-//W3C//DTD SVG 20010904//EN"
 "http://www.w3.org/TR/2001/REC-SVG-20010904/DTD/svg10.dtd">
<svg version="1.0" xmlns="http://www.w3.org/2000/svg"
 width="700.000000pt" height="700.000000pt" viewBox="0 0 700.000000 700.000000"
 preserveAspectRatio="xMidYMid meet">
<metadata>
Created by potrace 1.14, written by Peter Selinger 2001-2017
</metadata>
<g transform="translate(0.000000,700.000000) scale(0.100000,-0.100000)"
fill="#000000" stroke="none">
<path d="M2112 6549 c-130 -21 -266 -120 -322 -232 -30 -61 -32 -76 -44 -247
-6 -80 -19 -120 -64 -188 -54 -83 -127 -138 -236 -179 -35 -13 -120 -16 -556
-18 -561 -2 -581 -4 -677 -60 -59 -35 -121 -97 -156 -157 -61 -104 -57 49 -57
-2404 0 -1390 4 -2260 10 -2292 14 -77 48 -140 109 -202 63 -64 133 -104 218
-123 47 -11 631 -13 3193 -12 l3135 1 56 22 c117 46 212 149 253 274 l25 73
-2 2280 -2 2280 -31 66 c-54 113 -155 198 -279 235 -54 16 -113 18 -565 19
-278 1 -521 5 -540 9 -64 12 -142 58 -201 117 -91 91 -129 181 -129 310 0 134
-42 232 -136 318 -62 57 -138 97 -209 110 -62 12 -2720 11 -2793 0z m1600
-873 c42 -4 85 -8 95 -10 10 -2 38 -7 63 -10 304 -41 644 -189 935 -406 368
-274 641 -651 782 -1080 27 -84 68 -251 77 -320 3 -25 9 -70 13 -100 10 -72
10 -415 0 -508 -31 -287 -149 -629 -304 -881 -313 -507 -801 -861 -1373 -995
-58 -14 -127 -28 -155 -31 -27 -4 -61 -9 -75 -12 -14 -3 -126 -6 -250 -8 -239
-3 -313 4 -530 51 -156 33 -438 157 -638 279 -217 133 -462 351 -601 535 -182
242 -321 545 -382 835 -7 33 -14 67 -16 75 -1 8 -5 31 -8 50 -3 19 -7 44 -9
56 -17 87 -24 392 -12 524 37 385 193 782 434 1103 353 470 962 803 1558 852
37 3 69 7 70 8 5 5 255 -1 326 -7z"/>
<path d="M3369 4806 c-2 -2 -31 -7 -64 -10 -367 -41 -723 -281 -935 -630 -68
-112 -141 -300 -156 -406 -16 -110 -19 -153 -19 -285 0 -163 5 -208 36 -333
66 -266 227 -499 484 -698 114 -87 337 -194 456 -218 13 -2 49 -10 79 -16 148
-29 367 -32 495 -6 44 9 89 18 100 20 30 6 112 35 176 62 132 55 281 158 404
280 266 263 395 572 389 934 -2 131 -10 198 -40 319 -90 364 -351 689 -690
859 -96 48 -262 100 -374 118 -42 6 -336 15 -341 10z"/>
</g>
</svg>
